# xmcd
#
# Track frame offsets: 
#        150
#        11757
#        22937
#        34910
#        49470
#        59842
#        70525
#        79945
#        91935
#        104455
#        116300
#        128417
#        137150
#        147845
#        159717
#        173120
#
# Disc length: 2444 seconds
#
# Revision: 0
# Processed by: cddbd v1.5.2PL0 Copyright (c) Steve Scherf et al.
# Submitted via: ExactAudioCopy v0.95b4
#
DISCID=d8098a10
DTITLE=Various Artist - All Times Country Hits
DYEAR=1992
DGENRE=Country
TTITLE0=Don Gibson - Oh Lonesome me
TTITLE1=Johnny Horton - The Battle Of New Orleans
TTITLE2=Ronnie Hawkins - Cold Cold Heart
TTITLE3=Marty Robbins - Cool Water
TTITLE4=Conmay Twitty - Lonley Blue Boy
TTITLE5=Floyd Cramer - San Antonio Rose
TTITLE6=Bob Luman - Let´s Think About Living
TTITLE7=Slim Wihtman - Secret Love
TTITLE8=Skeeter Davies - Your Cheatin`Heart
TTITLE9=Jim Reeves - Welcome To My World
TTITLE10=Carl Perkins That`s Right
TTITLE11=Johnny Cash - I Forgot To Remember
TTITLE12=Jerry Wallace - Primrose Lane
TTITLE13=Patsy Cline - Today, Tomorrow And Forever
TTITLE14=Bobby Helms - My Special Angel
TTITLE15=Jerry Lee Lewis - Bonnie B
EXTD=
EXTT0=Don Gibson - Oh Lonesome Me
EXTT1=
EXTT2=
EXTT3=
EXTT4=
EXTT5=
EXTT6=
EXTT7=
EXTT8=
EXTT9=
EXTT10=
EXTT11=
EXTT12=
EXTT13=
EXTT14=
EXTT15=
PLAYORDER=
